{"title":"Edge.of.Tomorrow.2014.CHSSUB.WEB-DL.x264.AAC-lwn","uid":10941421,"size":2380884443,"categoryP":"video","categoryS":"movies","magnet":"?xt=urn:btih:9fca75e868400ba183e2581e12ea5874efeee425&amp;dn=Edge.of.Tomorrow.2014.CHSSUB.WEB-DL.x264.AAC-lwn&amp;tr=udp%3A%2F%2Ftracker.openbittorrent.com%3A80&amp;tr=udp%3A%2F%2Fopen.demonii.com%3A1337&amp;tr=udp%3A%2F%2Ftracker.coppersurfer.tk%3A6969&amp;tr=udp%3A%2F%2Fexodus.desync.com%3A6969","seeders":4,"leechers":0,"uploader":"xxxlavalxxx","files":-1,"time":1409527164,"description":"[IMG]http://i.imgur.com/HwXRmBy.jpg[/IMG]\n\n\n &lt;a href=&quot;\nhttp://www.imdb.com/title/tt1631867/&quot; rel=&quot;nofollow&quot; target=&quot;_NEW&quot;&gt;\nhttp://www.imdb.com/title/tt1631867/&lt;/a&gt;\n\n\nAn alien race has hit the Earth in an unrelenting assault, unbeatable by any military unit in the world. Major William Cage (Cruise) is an officer who has never seen a day of combat when he is unceremoniously dropped into what amounts to a suicide mission. Killed within minutes, Cage now finds himself inexplicably thrown into a time loop-forcing him to live out the same brutal combat over and over, fighting and dying again...and again. But with each battle, Cage becomes able to engage the adversaries with increasing skill, alongside Special Forces warrior Rita Vrataski (Blunt). And, as Cage and Vrataski take the fight to the aliens, each repeated encounter gets them one step closer to defeating the enemy.\n\nDirector: Doug Liman\nWriters: Christopher McQuarrie (screenplay), Jez Butterworth (screenplay)\nStars: Tom Cruise, Emily Blunt, Bill Paxton \nGenres: Action | Sci-Fi\nCountry: USA | Australia\nLanguage: English\n\n\n\n\nVideo\nID                                       : 1\nFormat                                   : AVC\nFormat/Info                              : Advanced Video Codec\nFormat profile                           : &lt;a class=&quot;__cf_email__&quot; href=&quot;/cdn-cgi/l/email-protection&quot; data-cfemail=&quot;a5e8c4cccbe5e9918b95&quot;&gt;[email&amp;#160;protected]&lt;/a&gt;&lt;script cf-hash='f9e31' type=&quot;text/javascript&quot;&gt;\n/* &lt;![CDATA[ */!function(){try{var t=&quot;currentScript&quot;in document?document.currentScript:function(){for(var t=document.getElementsByTagName(&quot;script&quot;),e=t.length;e--;)if(t[e].getAttribute(&quot;cf-hash&quot;))return t[e]}();if(t&amp;&amp;t.previousSibling){var e,r,n,i,c=t.previousSibling,a=c.getAttribute(&quot;data-cfemail&quot;);if(a){for(e=&quot;&quot;,r=parseInt(a.substr(0,2),16),n=2;a.length-n;n+=2)i=parseInt(a.substr(n,2),16)^r,e+=String.fromCharCode(i);e=document.createTextNode(e),c.parentNode.replaceChild(e,c)}}}catch(u){}}();/* ]]&gt; */&lt;/script&gt;\nFormat settings, CABAC                   : Yes\nFormat settings, ReFrames                : 4 frames\nCodec ID                                 : avc1\nCodec ID/Info                            : Advanced Video Coding\nDuration                                 : 3h 41mn\nSource duration                          : 1h 53mn\nBit rate                                 : 2 598 Kbps\nMaximum bit rate                         : 12.9 Mbps\nWidth                                    : 1 920 pixels\nHeight                                   : 800 pixels\nDisplay aspect ratio                     : 2.40:1\nFrame rate mode                          : Variable\nFrame rate                               : 25.000 fps\nMinimum frame rate                       : 24.802 fps\nMaximum frame rate                       : 25.202 fps\nColor space                              : YUV\nChroma subsampling                       : 4:2:0\nBit depth                                : 8 bits\nScan type                                : Progressive\nBits/(Pixel*Frame)                       : 0.068\nStream size                              : 2.06 GiB (96%)\nSource stream size                       : 2.06 GiB (96%)\nColor primaries                          : BT.709\nTransfer characteristics                 : BT.709\nMatrix coefficients                      : BT.709\n\nAudio\nID                                       : 2\nFormat                                   : AAC\nFormat/Info                              : Advanced Audio Codec\nFormat profile                           : HE-AAC / LC\nCodec ID                                 : 40\nDuration                                 : 1h 53mn\nBit rate mode                            : Variable\nBit rate                                 : 96.0 Kbps\nMaximum bit rate                         : 103 Kbps\nChannel(s)                               : 2 channels\nChannel positions                        : Front: L R\nSampling rate                            : 44.1 KHz / 22.05 KHz\nCompression mode                         : Lossy\nStream size                              : 77.8 MiB (4%)\n\n\nscreens\n &lt;a href=&quot;\nhttp://i.imgur.com/RCDQ1n2.jpg&quot; rel=&quot;nofollow&quot; target=&quot;_NEW&quot;&gt;\nhttp://i.imgur.com/RCDQ1n2.jpg&lt;/a&gt; &lt;a href=&quot;\nhttp://i.imgur.com/EgWySWK.jpg&quot; rel=&quot;nofollow&quot; target=&quot;_NEW&quot;&gt;\nhttp://i.imgur.com/EgWySWK.jpg&lt;/a&gt; &lt;a href=&quot;\nhttp://i.imgur.com/cEc3qRp.jpg&quot; rel=&quot;nofollow&quot; target=&quot;_NEW&quot;&gt;\nhttp://i.imgur.com/cEc3qRp.jpg&lt;/a&gt;","torrent":{"xt":"urn:btih:9fca75e868400ba183e2581e12ea5874efeee425","amp;dn":"Edge.of.Tomorrow.2014.CHSSUB.WEB-DL.x264.AAC-lwn","amp;tr":["udp%3A%2F%2Ftracker.openbittorrent.com%3A80","udp%3A%2F%2Fopen.demonii.com%3A1337","udp%3A%2F%2Ftracker.coppersurfer.tk%3A6969","udp%3A%2F%2Fexodus.desync.com%3A6969"],"infoHash":"9fca75e868400ba183e2581e12ea5874efeee425","infoHashBuffer":{"type":"Buffer","data":[159,202,117,232,104,64,11,161,131,226,88,30,18,234,88,116,239,238,228,37]},"announce":[],"urlList":[]}}